# xmcd
#
# Track frame offsets: 
#        150
#        22865
#        35660
#        50507
#        68382
#        82384
#        97756
#        112553
#        126717
#        140389
#        160898
#        174928
#
# Disc length: 2433 seconds
#
# Revision: 0
# Processed by: cddbd v1.5.2PL0 Copyright (c) Steve Scherf et al.
# Submitted via: ExactAudioCopy v1.0b3
#
DISCID=92097f0c
DTITLE=Mulebone - Keep on Movin'
DYEAR=2014
DGENRE=Blues
TTITLE0=Keep on Movin'
TTITLE1=On My Way
TTITLE2=She Wants My Name
TTITLE3=Knocking Around
TTITLE4=Saw My Baby
TTITLE5=Ain't No Price to Pay
TTITLE6=Toe That Line
TTITLE7=Million Miles from Nowhere
TTITLE8=Satisfy Your Soul
TTITLE9=Groove and a Grind
TTITLE10=How Can You Love Me
TTITLE11=Meet Your Maker
EXTD=
EXTT0=
EXTT1=
EXTT2=
EXTT3=
EXTT4=
EXTT5=
EXTT6=
EXTT7=
EXTT8=
EXTT9=
EXTT10=
EXTT11=
PLAYORDER=
